PathFileType	4	(X/Y/Z)	Patient4_TMGait_0pt4_02_left_18.trc.trc
DataRate	CameraRate	NumFrames	NumMarkers	Units	OrigDataRate	OrigDataStartFrame	OrigNumFrames
74.074074074074	74.074074074074	4	33	mm	74.074074074074	106	       141
Frame#	Time	Sacral			L.Shoulder			Chest			R.Shoulder			Neck			R.ASIS			L.ASIS			R.Thigh.Superior			R.Thigh.Lateral			R.Thigh.Inferior			R.Patella			L.Thigh.Superior			L.Thigh.Lateral			L.Thigh.Inferior			L.Patella			L.Shank.Superior			L.Shank.Lateral			L.Shank.Inferior			R.Shank.Superior			R.Shank.Lateral			R.Shank.Inferior			R.Heel			R.Midfoot.Superior			R.Midfoot.Lateral			R.Toe			L.Heel			L.Midfoot.Lateral			L.Midfoot.Superior			L.Toe			L.Elbow			L.Wrist			R.Elbow			R.Wrist			
		X1	Y1	Z1	X2	Y2	Z2	X3	Y3	Z3	X4	Y4	Z4	X5	Y5	Z5	X6	Y6	Z6	X7	Y7	Z7	X8	Y8	Z8	X9	Y9	Z9	X10	Y10	Z10	X11	Y11	Z11	X12	Y12	Z12	X13	Y13	Z13	X14	Y14	Z14	X15	Y15	Z15	X16	Y16	Z16	X17	Y17	Z17	X18	Y18	Z18	X19	Y19	Z19	X20	Y20	Z20	X21	Y21	Z21	X22	Y22	Z22	X23	Y23	Z23	X24	Y24	Z24	X25	Y25	Z25	X26	Y26	Z26	X27	Y27	Z27	X28	Y28	Z28	X29	Y29	Z29	X30	Y30	Z30	X31	Y31	Z31	X32	Y32	Z32	X33	Y33	Z33	

106	25.537500000000	880.202605668687	1008.558379325384	551.014039885325	1038.660409325868	1441.279980262346	360.280025596969	1160.398893120846	1371.143165624009	506.667251311344	1098.935958703129	1440.490024919891	691.068075723404	1039.032422111882	1499.454590298247	518.623386234673	1119.635728431470	942.614089094750	640.203927833311	1076.266551224063	973.246267126380	370.425799073027	1146.067278598382	739.272356477108	610.189079728674	1060.912500354012	633.335560494860	674.931301647178	1132.209352061483	578.428951564276	592.925853820386	1127.275523531832	490.932868282276	600.242867786449	1161.951920401345	791.365551458914	383.402987549014	1112.568393139926	664.261543409624	305.197488375374	1221.690857558408	604.895570595237	354.254563086186	1242.799887544623	527.664173437200	343.847085233737	1203.025591678388	453.191416964772	336.412112485768	1091.682067384777	356.829657540204	291.347770955935	1142.136583220052	232.324132560819	337.556607049189	1095.979378547924	402.902848485004	606.355038511583	1019.610416760206	301.548560263846	666.102064779412	1058.757386232014	205.576245118815	602.218391897683	920.231479573276	43.684597190170	567.820690015051	1090.580868965574	97.297393894058	608.777825600242	1001.901045980572	37.352655850463	645.138223822168	1210.399503298807	43.559583557198	638.620888308693	1005.709828557831	87.998161313231	380.770157587667	1070.647478302619	76.537043138975	294.699419683428	1162.051522495549	130.040767710370	311.925985704727	1278.613460543519	66.778410681061	271.997603594192	969.418827288021	1094.726012983726	245.917359019238	1027.570361893406	840.767419431696	212.460354021943	1154.346073493520	1114.525814181878	844.331897703344	1389.669447187644	1021.360469305436	797.306340747844	
107	25.551000000000	879.841003422398	1008.840062010865	552.310164203420	1037.444966783545	1441.262527114942	360.790680903580	1160.146495179306	1370.965953134909	506.308989589896	1100.078074221493	1440.417406895562	691.169994698568	1039.006797329671	1499.371869573167	519.235573334808	1119.295975597035	942.305610821991	640.105199563230	1074.862697698480	973.384698696549	370.560584318186	1144.062767691067	738.608028640802	609.580929319538	1058.405433291819	633.268498375182	675.009695283491	1128.382586910617	577.912896908806	592.491907117518	1122.724427611153	490.655483285237	599.868156531132	1159.542192908237	790.711521459563	384.145626031523	1110.164792917111	664.049878400867	305.498122925243	1218.128115658720	604.045362539409	356.260023554178	1240.354312995220	529.202807181073	345.890055909457	1204.754530188453	455.023272279252	337.350930048982	1100.821518827192	351.865864268291	290.198744830200	1159.098916867654	230.502461805371	336.320631590633	1091.395015725580	402.611313031344	606.094525077220	1014.963680556302	301.464704509735	665.998909790252	1053.703000464427	205.371423760284	601.988640534609	914.825090657119	43.641122231032	567.842215083563	1085.130722111784	97.167489517871	608.632533898483	996.457216471922	37.340022616304	645.135963258408	1204.941235608211	43.498862706009	638.642487061822	1032.380482153555	77.246712252517	377.430010680978	1098.986963088860	70.135235441118	292.094853630964	1186.660237383253	129.239053585978	310.392354652298	1307.480231050116	73.473749370767	271.769056335820	963.600318619815	1095.425635549211	247.470174457696	1012.314540490956	839.412688968970	216.129459297626	1161.830072914471	1115.280725159468	843.050935835160	1399.805171010072	1031.902831358940	792.525705234427	
108	25.564500000000	879.456815302016	1009.037039478709	553.371472686788	1036.376103918190	1441.155094324434	361.051926218143	1159.920345057247	1370.698397381832	505.793777030202	1101.106758722553	1440.272857594666	691.047833229301	1038.986640364564	1499.214898423057	519.579561361422	1118.933489798184	941.955911474192	639.899964558273	1073.537096343178	973.364292605201	370.571747232968	1142.146097921496	737.916152655917	608.947039965721	1056.022793107768	633.151253153485	675.007988139571	1124.717119309554	577.375981872802	592.004801941908	1118.365992097277	490.341286588585	599.441983731307	1156.885658520996	789.564756484609	384.953427870787	1107.388319028215	663.541745657022	305.679442054985	1214.056658868240	602.687994415875	358.321335152730	1237.308658736896	530.300032445143	348.071644985795	1205.797246819313	456.702722174118	338.358434549078	1109.559763477785	347.333524975711	289.039073645590	1175.184920296914	229.546167403250	335.311765419316	1086.947276077557	402.279158685353	605.781796856076	1010.437132569284	301.372032591843	665.901652499277	1048.690817477740	205.147057391627	601.743514608629	909.411219288361	43.597664277077	567.867363057980	1079.675947726651	97.019484182131	608.462399605604	991.012494537694	37.323854725960	645.135803791910	1199.482792846087	43.430069416669	638.649890487862	1058.293845424741	68.300976736201	374.285345457086	1126.522807309122	65.227776851576	289.850350464747	1210.272680198054	129.529802405959	309.243333244947	1334.861942788010	81.037335398624	272.333260276631	957.854699223093	1096.127612413867	248.837732497237	997.843703491569	838.488680456693	220.041267934699	1169.060319073330	1115.975415992567	841.355911915569	1409.270520426527	1042.755398213439	787.409792912261	
109	25.578000000000	879.044271475676	1009.167573279602	554.200410012448	1035.446899537491	1440.976633629482	361.062695256092	1159.716254705785	1370.358716056357	505.120307587974	1102.019693781660	1440.079162647352	690.699246229215	1038.961792824265	1499.006926845038	519.637574090485	1118.562459879547	941.581716119278	639.595106775928	1072.281820360464	973.214003589807	370.455774851403	1140.318839407343	737.205963410598	608.299099739122	1053.754026366639	632.985842314138	674.920897077361	1121.226822384228	576.815233377424	591.471536909788	1114.212530307239	489.986154557904	598.966127505342	1154.064005945210	788.063307829807	385.773853190332	1104.362292754458	662.817361397264	305.747759964874	1209.713919876729	601.009928615818	360.295103961415	1233.891740495400	531.058538158065	350.254298654972	1206.279138543123	458.253466628209	339.360457837240	1117.717664986792	343.360132254072	287.986099035251	1190.089861455611	229.431329643375	334.589597705763	1082.640081266412	401.913003708714	605.420750483765	1006.026249741739	301.277200182251	665.805778087005	1043.720719850402	204.910004287328	601.491517873472	903.988423122668	43.559282711485	567.896083864142	1074.217793417511	96.862957964009	608.279297666175	985.566722055858	37.305594717722	645.138654714538	1194.025840112274	43.354343128987	638.646544368631	1082.835462040459	61.263915549257	371.602151919693	1152.574858243758	61.788782904678	288.152616094398	1232.372242302433	130.797014964621	308.537720284808	1360.192339392748	89.147948874881	273.614698262876	952.177904171459	1096.848059413500	250.050318809700	984.204323002562	837.946232394180	224.149949463896	1176.012793719614	1116.624717616920	839.254028739927	1418.015595000553	1053.868893736189	782.015252063652	
